<svg xmlns="http://www.w3.org/2000/svg" width="20" height="41" viewBox="0 0 20 41">
  <g id="Group_69" data-name="Group 69" transform="translate(-4532.57 -6091.713)">
    <path id="Path_19400" data-name="Path 19400" d="M230.381,110.2c0,5.793-10,18.7-10,18.7s-10-12.9-10-18.7a10.011,10.011,0,1,1,20,0Z" transform="translate(4322.189 5992)" fill="#fff"/>
    <path id="Path_19401" data-name="Path 19401" d="M269.382,147.713a6,6,0,1,1-6-6h0a6,6,0,0,1,6,5.994Z" transform="translate(4279.188 5953.414)" fill="#005397"/>
    <path id="Path_19402" data-name="Path 19402" d="M3,0A3,3,0,1,1,0,3,3,3,0,0,1,3,0Z" transform="translate(4539.57 6098.075)" fill="#fff"/>
    <circle id="Ellipse_124" data-name="Ellipse 124" cx="4" cy="4" r="4" transform="translate(4538.57 6124.713)" fill="#fff"/>
  </g>
</svg>
