<svg xmlns="http://www.w3.org/2000/svg" width="30" height="21" viewBox="0 0 30 21">
  <path id="Icon_awesome-youtube" data-name="Icon awesome-youtube" d="M30.423,7.786a3.761,3.761,0,0,0-2.652-2.658C25.431,4.5,16.05,4.5,16.05,4.5s-9.381,0-11.721.628A3.761,3.761,0,0,0,1.677,7.786a39.2,39.2,0,0,0-.627,7.235,39.2,39.2,0,0,0,.627,7.235,3.705,3.705,0,0,0,2.652,2.615c2.34.628,11.721.628,11.721.628s9.381,0,11.721-.628a3.705,3.705,0,0,0,2.652-2.615,39.2,39.2,0,0,0,.627-7.235,39.2,39.2,0,0,0-.627-7.235ZM12.982,19.462V10.58l7.841,4.441-7.841,4.441Z" transform="translate(-1.05 -4.5)" fill="#005397"/>
</svg>
