<svg xmlns="http://www.w3.org/2000/svg" width="27" height="22" viewBox="0 0 27 22">
  <path id="Icon_awesome-twitter" data-name="Icon awesome-twitter" d="M24.225,8.864c.017.241.017.481.017.722,0,7.339-5.568,15.8-15.744,15.8A15.6,15.6,0,0,1,0,22.889a11.411,11.411,0,0,0,1.336.069,11.06,11.06,0,0,0,6.87-2.372,5.546,5.546,0,0,1-5.174-3.85,6.956,6.956,0,0,0,1.045.086,5.835,5.835,0,0,0,1.456-.189A5.548,5.548,0,0,1,1.1,11.184v-.069a5.559,5.559,0,0,0,2.5.7A5.572,5.572,0,0,1,1.884,4.395,15.712,15.712,0,0,0,13.294,10.2a6.287,6.287,0,0,1-.137-1.272,5.535,5.535,0,0,1,9.577-3.8,10.873,10.873,0,0,0,3.512-1.341,5.533,5.533,0,0,1-2.433,3.059A11.065,11.065,0,0,0,27,5.993a11.916,11.916,0,0,1-2.775,2.87Z" transform="translate(0 -3.381)" fill="#005397"/>
</svg>
