<svg xmlns="http://www.w3.org/2000/svg" width="28" height="27.414" viewBox="0 0 28 27.414">
  <path id="Icon_feather-phone" data-name="Icon feather-phone" d="M31.167,23.525v4.127a2.723,2.723,0,0,1-.912,2.039A2.857,2.857,0,0,1,28.1,30.4a28.282,28.282,0,0,1-12.15-4.223A27.148,27.148,0,0,1,7.5,17.926,26.825,26.825,0,0,1,3.179,6,2.712,2.712,0,0,1,3.9,3.9,2.846,2.846,0,0,1,5.981,3H10.2A2.8,2.8,0,0,1,13.02,5.366a17.333,17.333,0,0,0,.985,3.866,2.706,2.706,0,0,1-.634,2.9l-1.788,1.747a22.275,22.275,0,0,0,8.447,8.254l1.788-1.747a2.864,2.864,0,0,1,2.971-.619,18.424,18.424,0,0,0,3.956.963,2.771,2.771,0,0,1,2.421,2.793Z" transform="translate(-3.168 -3)" fill="#fff"/>
</svg>
